:SAMPLES-PER-SECOND 30
:FULLY-SPECIFIED
:DEGREES
188
root  66.4748 36.2362 2.93021 37.8864 11.3299 -2.24453
RightUpLeg  -69.8135 -11.3657 2.08535
RightLeg  33.3711 0.18903 -0.115591
RightFoot  1.30447 -0.240477 2.2489
RightToes  0.00048216 0.542163 -0.142577
Spine  72.2289 -4.57472 7.52276
Spine1  11.7572 3.33343 -4.77732
HEad  -25.1822 -11.7226 10.6213
LeftShoulder1  1.57335 -22.8808 2.8303
LeftArm  -81.3878 -48.4118 31.5141
LeftForeArm  -18.7388 -7.09021 6.03105
LeftHand  -0.25398 0.0180481 5.50724
RightShoulder  0.887028 10.6248 -2.4193
RightArm  -78.5443 58.2647 -15.7883
RightForeArm  -23.8344 25.8918 6.68092
RightHand  -1.37101 11.3412 -9.99924
LeftUpLeg  -78.5509 25.1034 -28.4802
LeftLeg  37.3641 -2.65972 -1.80143
LeftFoot  -3.87205 -0.4865 7.80252
LeftToes  1.06243e-005 4.65856e-005 -8.18505e-006
189
root  66.9963 36.1794 2.99092 37.9352 10.9403 -2.70092
RightUpLeg  -69.5524 -11.0009 1.11241
RightLeg  33.2379 -0.170626 -0.369378
RightFoot  1.35765 -0.36166 3.33171
RightToes  0.00048216 0.542163 -0.142577
Spine  72.0541 -4.33162 7.20082
Spine1  11.7005 3.26818 -4.62969
HEad  -24.9939 -11.4703 10.5406
LeftShoulder1  1.58098 -22.9065 2.8072
LeftArm  -80.8992 -49.192 31.4293
LeftForeArm  -18.4 -6.10468 5.89521
LeftHand  -0.25398 0.0180481 5.50724
RightShoulder  0.867063 10.4829 -2.51192
RightArm  -77.3219 58.5305 -15.4158
RightForeArm  -22.2318 25.1416 6.43846
RightHand  -1.38945 10.878 -10.3885
LeftUpLeg  -79.0054 25.1539 -29.0443
LeftLeg  38.4421 -2.39923 -1.65895
LeftFoot  -5.07642 -0.453024 8.81661
LeftToes  1.06243e-005 4.65856e-005 -8.18505e-006
190
root  67.4456 36.1478 3.0558 37.5498 10.8143 -3.35985
RightUpLeg  -68.7636 -10.3974 0.220246
RightLeg  33.0431 -0.792858 -0.804041
RightFoot  1.37419 -0.466424 4.26774
RightToes  0.00048216 0.542163 -0.142577
Spine  71.9775 -4.22063 6.92094
Spine1  12.1024 3.09115 -4.4542
HEad  -25.3218 -10.7949 10.194
LeftShoulder1  1.71423 -22.7373 2.16398
LeftArm  -81.4731 -49.8745 31.7497
LeftForeArm  -17.7196 -5.90459 5.8933
LeftHand  -0.25398 0.0180481 5.50724
RightShoulder  0.782896 10.4857 -3.19019
RightArm  -76.2084 59.0627 -14.8347
RightForeArm  -21.0712 23.8155 6.07554
RightHand  -1.31223 10.0405 -10.3333
LeftUpLeg  -78.957 25.3708 -28.9826
LeftLeg  39.3255 -2.08449 -1.44302
LeftFoot  -6.0482 -0.407847 9.58281
LeftToes  1.06243e-005 4.65856e-005 -8.18505e-006
191
root  67.8089 36.1151 3.1201 37.2472 10.676 -4.01059
RightUpLeg  -68.1227 -9.8261 -0.392365
RightLeg  32.8331 -1.13439 -1.03642
RightFoot  1.34312 -0.540891 4.94518
RightToes  0.00048216 0.542163 -0.142577
Spine  71.6402 -3.88924 6.16171
Spine1  13.0306 2.59535 -3.80508
HEad  -26.1629 -9.43173 9.58217
LeftShoulder1  2.07581 -21.3587 0.127721
LeftArm  -83.3064 -50.8627 33.5983
LeftForeArm  -16.7266 -6.40084 5.68756
LeftHand  -0.25398 0.0180481 5.50724
RightShoulder  0.50837 10.8569 -5.55709
RightArm  -75.1795 59.5901 -13.136
RightForeArm  -20.449 21.9538 5.57915
RightHand  -1.28251 9.87212 -10.2167
LeftUpLeg  -79.0069 25.6457 -28.9338
LeftLeg  40.0684 -1.73066 -1.1686
LeftFoot  -6.94342 -0.342566 9.9834
LeftToes  1.06243e-005 4.65856e-005 -8.18505e-006
192
root  68.0927 36.0877 3.18435 36.9817 10.6291 -4.51428
RightUpLeg  -67.5991 -9.61703 -0.652967
RightLeg  32.6768 -1.13757 -1.03273
RightFoot  1.26357 -0.597731 5.48552
RightToes  0.00048216 0.542163 -0.142577
Spine  71.5872 -3.74686 5.97106
Spine1  13.0485 2.78573 -4.16702
HEad  -26.6211 -9.30955 9.9141
LeftShoulder1  2.21442 -21.3188 -0.526826
LeftArm  -84.0623 -51.8328 34.0423
LeftForeArm  -15.3739 -7.10009 5.35821
LeftHand  -0.25398 0.0180481 5.50724
RightShoulder  0.591128 11.4553 -5.08665
RightArm  -71.6745 59.2093 -12.5554
RightForeArm  -21.6042 20.2203 5.19596
RightHand  -1.32791 10.5297 -10.1546
LeftUpLeg  -79.0578 25.8775 -28.9146
LeftLeg  40.731 -1.44936 -0.941232
LeftFoot  -7.79758 -0.272765 10.3105
LeftToes  1.06243e-005 4.65856e-005 -8.18505e-006
193
root  68.3011 36.0714 3.25206 36.701 10.7524 -4.81434
RightUpLeg  -67.0675 -9.5045 -0.974384
RightLeg  32.6438 -1.31441 -1.1533
RightFoot  1.122 -0.653127 6.04564
RightToes  0.00048216 0.542163 -0.142577
Spine  71.5939 -3.90163 6.13186
Spine1  12.9883 3.14962 -5.08486
HEad  -26.9907 -9.61254 10.5398
LeftShoulder1  2.12083 -21.5682 -0.0301082
LeftArm  -83.9374 -52.641 33.8508
LeftForeArm  -14.3334 -7.69722 4.90427
LeftHand  -0.25398 0.0180481 5.50724
RightShoulder  0.840465 12.3598 -3.53461
RightArm  -68.5731 58.1091 -12.2765
RightForeArm  -22.5999 19.1918 5.0739
RightHand  -1.38537 11.0747 -10.2445
LeftUpLeg  -78.94 26.0027 -28.8445
LeftLeg  41.251 -1.29495 -0.816776
LeftFoot  -8.37655 -0.22746 10.7062
LeftToes  1.06243e-005 4.65856e-005 -8.18505e-006
194
root  68.4393 36.0677 3.32205 36.5302 11.0075 -4.96434
RightUpLeg  -66.6124 -9.24258 -1.49725
RightLeg  32.6658 -1.83496 -1.51345
RightFoot  0.94822 -0.699459 6.54938
RightToes  0.00048216 0.542163 -0.142577
Spine  71.4811 -4.15722 6.74237
Spine1  12.8796 3.78364 -6.27857
HEad  -27.5255 -10.4752 11.395
LeftShoulder1  1.81639 -22.5508 1.67816
LeftArm  -83.6904 -53.301 32.7176
LeftForeArm  -12.5266 -8.48474 4.69185
LeftHand  -0.25398 0.0180481 5.50724
RightShoulder  1.21462 12.5709 -0.944076
RightArm  -66.0636 57.0606 -12.3119
RightForeArm  -23.9654 18.9277 5.18913
RightHand  -1.44788 11.0603 -10.69
LeftUpLeg  -78.7565 26.0187 -28.785
LeftLeg  41.5156 -1.2479 -0.781986
LeftFoot  -8.62285 -0.209114 10.9682
LeftToes  1.06243e-005 4.65856e-005 -8.18505e-006
195
root  68.522 36.0774 3.39446 36.5502 11.3458 -5.04521
RightUpLeg  -66.3341 -9.09408 -1.83634
RightLeg  32.6227 -2.2711 -1.81197
RightFoot  0.785024 -0.726357 6.87998
RightToes  0.00048216 0.542163 -0.142577
Spine  71.2192 -4.0488 6.39258
Spine1  13.1959 3.31948 -5.65168
HEad  -28.453 -9.73083 11.0517
LeftShoulder1  2.15182 -21.4064 -0.20278
LeftArm  -85.3425 -54.1643 34.7762
LeftForeArm  -10.6459 -9.82519 3.99664
LeftHand  -0.25398 0.0180481 5.50724
RightShoulder  1.08444 13.5202 -2.32617
RightArm  -65.793 56.5453 -9.88849
RightForeArm  -24.3908 18.5375 5.0044
RightHand  -1.52741 10.9381 -11.3215
LeftUpLeg  -78.6781 25.9746 -28.8288
LeftLeg  41.5409 -1.28466 -0.818419
LeftFoot  -8.76937 -0.193893 10.9578
LeftToes  1.06243e-005 4.65856e-005 -8.18505e-006
196
root  68.5671 36.1 3.47379 36.5793 11.8334 -5.06128
RightUpLeg  -66.0688 -9.44396 -1.70134
RightLeg  32.5372 -2.28452 -1.81587
RightFoot  0.569729 -0.737909 7.10166
RightToes  0.00048216 0.542163 -0.142577
Spine  71.2257 -4.12446 6.6211
Spine1  13.0742 3.43985 -5.66931
HEad  -29.5697 -10.2617 11.8005
LeftShoulder1  2.11866 -21.3196 -0.0929993
LeftArm  -87.761 -54.9807 34.4389
LeftForeArm  -7.76294 -11.837 3.51118
LeftHand  -0.25398 0.0180481 5.50724
RightShoulder  1.22514 13.3722 -1.30658
RightArm  -65.9038 56.6419 -9.63799
RightForeArm  -25.4035 17.8921 4.84452
RightHand  -1.57785 10.9902 -11.6419
LeftUpLeg  -78.5289 25.8793 -28.8494
LeftLeg  41.4363 -1.34534 -0.872032
LeftFoot  -8.9179 -0.175246 10.7954
LeftToes  1.06243e-005 4.65856e-005 -8.18505e-006
197
root  68.5794 36.127 3.5571 36.4725 12.5304 -4.95686
RightUpLeg  -65.7144 -10.293 -1.24285
RightLeg  32.571 -2.00534 -1.62559
RightFoot  0.222191 -0.739921 7.31259
RightToes  0.00048216 0.542163 -0.142577
Spine  71.5037 -4.39154 6.85801
Spine1  12.9163 3.36697 -5.47947
HEad  -30.7382 -10.9569 12.4091
LeftShoulder1  2.03078 -21.0851 0.217837
LeftArm  -90.3724 -55.6089 33.3429
LeftForeArm  -5.00633 -13.812 2.73613
LeftHand  -0.25398 0.0180481 5.50724
RightShoulder  1.48311 13.7294 0.22058
RightArm  -67.5258 56.744 -10.9258
RightForeArm  -25.181 17.0882 4.51092
RightHand  -1.54323 10.9294 -11.438
LeftUpLeg  -78.0693 25.6213 -28.6436
LeftLeg  41.2652 -1.30481 -0.826978
LeftFoot  -8.95109 -0.168644 10.6411
LeftToes  1.06243e-005 4.65856e-005 -8.18505e-006
198
root  68.5541 36.1408 3.62909 36.4285 13.272 -4.71835
RightUpLeg  -65.5696 -11.2914 -0.748742
RightLeg  32.8205 -1.69834 -1.4263
RightFoot  -0.173777 -0.73088 7.45262
RightToes  0.00048216 0.542163 -0.142577
Spine  71.7036 -4.62327 7.1117
Spine1  12.7467 3.17963 -4.95156
HEad  -31.9092 -11.8946 12.4897
LeftShoulder1  1.9004 -21.0362 0.80037
LeftArm  -91.7655 -56.2342 31.6587
LeftForeArm  -3.33776 -14.7485 2.34877
LeftHand  -0.25398 0.0180481 5.50724
RightShoulder  1.8229 14.3812 2.02568
RightArm  -69.1772 56.5711 -13.1557
RightForeArm  -24.2717 16.6 4.26808
RightHand  -1.45932 10.7077 -10.9875
LeftUpLeg  -77.5613 25.1436 -28.3538
LeftLeg  41.0702 -1.13055 -0.656999
LeftFoot  -8.84837 -0.177799 10.5928
LeftToes  1.06243e-005 4.65856e-005 -8.18505e-006
